<svg width="24" height="26" viewBox="0 0 24 26"  xmlns="http://www.w3.org/2000/svg">
<path d="M20.75 25.5H3.25C1.86929 25.5 0.75 24.3807 0.75 23V5.5C0.75 4.11929 1.86929 3 3.25 3H5.75V0.5H8.25V3H15.75V0.5H18.25V3H20.75C22.1307 3 23.25 4.11929 23.25 5.5V23C23.25 24.3807 22.1307 25.5 20.75 25.5ZM3.25 10.5V23H20.75V10.5H3.25ZM3.25 5.5V8H20.75V5.5H3.25ZM18.25 20.5H15.75V18H18.25V20.5ZM13.25 20.5H10.75V18H13.25V20.5ZM8.25 20.5H5.75V18H8.25V20.5ZM18.25 15.5H15.75V13H18.25V15.5ZM13.25 15.5H10.75V13H13.25V15.5ZM8.25 15.5H5.75V13H8.25V15.5Z"/>
</svg>
