<svg width="22" height="22" viewBox="0 0 22 22"  xmlns="http://www.w3.org/2000/svg">
<path fill-rule="evenodd" clip-rule="evenodd" d="M0.292893 0.292893C0.683417 -0.0976311 1.31658 -0.0976311 1.70711 0.292893L10.9167 9.50245L20.1262 0.292893C20.5168 -0.0976311 21.1499 -0.0976311 21.5404 0.292893C21.931 0.683417 21.931 1.31658 21.5404 1.70711L12.3309 10.9167L21.5404 20.1262C21.931 20.5168 21.931 21.1499 21.5404 21.5404C21.1499 21.931 20.5168 21.931 20.1262 21.5404L10.9167 12.3309L1.70711 21.5404C1.31658 21.931 0.683417 21.931 0.292893 21.5404C-0.0976311 21.1499 -0.0976311 20.5168 0.292893 20.1262L9.50245 10.9167L0.292893 1.70711C-0.0976311 1.31658 -0.0976311 0.683417 0.292893 0.292893Z"/>
</svg>