<svg width="26" height="22" viewBox="0 0 26 22"  xmlns="http://www.w3.org/2000/svg">
<path d="M20.5 22.0001H1.75C1.41824 22.0034 1.09919 21.8725 0.865411 21.6371C0.631633 21.4017 0.502995 21.0817 0.50875 20.75H0.5V3.25C0.5 1.86929 1.61929 0.75 3 0.75H10.5C10.7792 0.750266 11.0503 0.843997 11.27 1.01625L14.125 3.25H20.5C21.8807 3.25 23 4.36929 23 5.75V10.75H24.25C24.6702 10.75 25.0622 10.9612 25.2935 11.312C25.5247 11.6628 25.5643 12.1063 25.3988 12.4925L21.6488 21.2425C21.4518 21.702 20.9999 22.0001 20.5 22.0001ZM6.325 13.25L3.64625 19.5H19.6763L22.355 13.25H6.325ZM3 5.75V14.6625L4.35125 11.5075C4.54823 11.048 5.00005 10.7501 5.5 10.75H20.5V5.75H3Z" />
</svg>
