<svg width="20" height="24" viewBox="0 0 20 24"  xmlns="http://www.w3.org/2000/svg">
<path d="M18.75 23.4999H1.25C0.559644 23.4999 0 22.9403 0 22.2499V10.2674C0 9.93596 0.131813 9.61806 0.36625 9.3837L9.11625 0.633698C9.35071 0.398977 9.66886 0.26709 10.0006 0.26709C10.3324 0.26709 10.6505 0.398977 10.885 0.633698L19.635 9.3837C19.8697 9.6178 20.0011 9.93597 20 10.2674V22.2499C20 22.9403 19.4404 23.4999 18.75 23.4999ZM7.5 14.7499H12.5V20.9999H17.5V10.7849L10 3.28495L2.5 10.7849V20.9999H7.5V14.7499Z" />
</svg>
