<svg width="26" height="21" viewBox="0 0 26 21"  xmlns="http://www.w3.org/2000/svg">
<path d="M23 20.9999H3C1.66314 21.0399 0.54552 19.9916 0.5 18.6549V3.34368C0.545516 2.00719 1.66335 0.959213 3 0.999927H23C24.3366 0.959213 25.4545 2.00719 25.5 3.34368V18.6562C25.4538 19.9924 24.3364 21.0399 23 20.9999ZM3 3.49993V18.4862L23 18.4999V3.51368L3 3.49993ZM14.7875 15.9999H5.5C5.59191 14.965 6.08168 14.0061 6.86625 13.3249C7.73978 12.4583 8.91351 11.9614 10.1438 11.9374C11.374 11.9614 12.5477 12.4583 13.4212 13.3249C14.2056 14.0062 14.6953 14.9651 14.7875 15.9999ZM20.5 14.7499H16.75V12.2499H20.5V14.7499ZM10.1438 10.9999C9.47384 11.0232 8.82434 10.7673 8.35036 10.2933C7.87638 9.81933 7.62047 9.16983 7.64375 8.49993C7.62085 7.83013 7.87688 7.18085 8.35077 6.70695C8.82467 6.23305 9.47395 5.97702 10.1438 5.99993C10.8136 5.97702 11.4628 6.23305 11.9367 6.70695C12.4106 7.18085 12.6667 7.83013 12.6438 8.49993C12.667 9.16983 12.4111 9.81933 11.9371 10.2933C11.4632 10.7673 10.8137 11.0232 10.1438 10.9999ZM20.5 9.74993H15.5V7.24993H20.5V9.74993Z"/>
</svg>
