<svg width="22" height="18" viewBox="0 0 22 18" xmlns="http://www.w3.org/2000/svg">
<path  d="M3.00002 2C2.45231 2 2.00002 2.45228 2.00002 3V15C2.00002 15.5477 2.45231 16 3.00002 16H19C19.5477 16 20 15.5477 20 15V3C20 2.45228 19.5477 2 19 2H3.00002ZM2.48306e-05 3C2.48306e-05 1.34772 1.34774 0 3.00002 0H19C20.6523 0 22 1.34772 22 3V15C22 16.6523 20.6523 18 19 18H3.00002C1.34774 18 2.48306e-05 16.6523 2.48306e-05 15V3Z"/>
<path  d="M0.180793 2.42654C0.497507 1.97409 1.12104 1.86405 1.57349 2.18077L11 8.77934L20.4266 2.18077C20.879 1.86405 21.5025 1.97409 21.8193 2.42654C22.136 2.87899 22.0259 3.50252 21.5735 3.81923L11.5735 10.8192C11.2292 11.0603 10.7709 11.0603 10.4266 10.8192L0.426562 3.81923C-0.0258869 3.50252 -0.135922 2.87899 0.180793 2.42654Z"/></svg>