<svg width="384" height="448" viewBox="0 0 384 448" xmlns="http://www.w3.org/2000/svg">
<path d="M368 64H272V40C272 29.3913 267.786 19.2172 260.284 11.7157C252.783 4.21427 242.609 0 232 0H152C141.391 0 131.217 4.21427 123.716 11.7157C116.214 19.2172 112 29.3913 112 40V64H16C11.7565 64 7.68688 65.6857 4.68629 68.6863C1.68571 71.6869 0 75.7565 0 80C0 84.2435 1.68571 88.3131 4.68629 91.3137C7.68688 94.3143 11.7565 96 16 96H33L52 400.92C53.42 427.77 74 448 100 448H284C310.13 448 330.3 428.22 332 401L351 96H368C372.243 96 376.313 94.3143 379.314 91.3137C382.314 88.3131 384 84.2435 384 80C384 75.7565 382.314 71.6869 379.314 68.6863C376.313 65.6857 372.243 64 368 64ZM128.57 384H128C123.853 384.003 119.868 382.395 116.883 379.517C113.898 376.639 112.148 372.714 112 368.57L104 144.57C103.849 140.327 105.39 136.197 108.283 133.089C111.177 129.982 115.187 128.151 119.43 128C123.673 127.849 127.803 129.39 130.911 132.283C134.018 135.177 135.849 139.187 136 143.43L144 367.43C144.076 369.531 143.737 371.627 143.003 373.598C142.269 375.568 141.153 377.375 139.72 378.914C138.287 380.452 136.564 381.694 134.651 382.567C132.738 383.439 130.672 383.926 128.57 384ZM208 368C208 372.243 206.314 376.313 203.314 379.314C200.313 382.314 196.243 384 192 384C187.757 384 183.687 382.314 180.686 379.314C177.686 376.313 176 372.243 176 368V144C176 139.757 177.686 135.687 180.686 132.686C183.687 129.686 187.757 128 192 128C196.243 128 200.313 129.686 203.314 132.686C206.314 135.687 208 139.757 208 144V368ZM240 64H144V40C143.988 38.9461 144.187 37.9004 144.584 36.9243C144.982 35.9483 145.571 35.0616 146.316 34.3163C147.062 33.571 147.948 32.9822 148.924 32.5844C149.9 32.1866 150.946 31.9879 152 32H232C233.054 31.9879 234.1 32.1866 235.076 32.5844C236.052 32.9822 236.938 33.571 237.684 34.3163C238.429 35.0616 239.018 35.9483 239.416 36.9243C239.813 37.9004 240.012 38.9461 240 40V64ZM272 368.57C271.852 372.714 270.102 376.639 267.117 379.517C264.132 382.395 260.147 384.003 256 384H255.42C253.319 383.925 251.254 383.437 249.342 382.564C247.43 381.69 245.709 380.449 244.277 378.91C242.845 377.371 241.73 375.565 240.996 373.596C240.262 371.626 239.924 369.531 240 367.43L248 143.43C248.075 141.329 248.563 139.263 249.436 137.35C250.309 135.438 251.551 133.716 253.089 132.283C254.628 130.85 256.434 129.735 258.404 129C260.374 128.265 262.469 127.925 264.57 128C266.671 128.075 268.737 128.563 270.65 129.436C272.562 130.309 274.284 131.551 275.717 133.089C277.15 134.628 278.265 136.434 279 138.404C279.735 140.374 280.075 142.469 280 144.57L272 368.57Z"/>
</svg>
